# Blender 4.0.2
# www.blender.org
o sag_kaldirim
v 155.178009 -0.377109 121.954636
v -103.743050 -0.377109 121.954636
v 155.178009 -0.377109 209.381775
v -103.743050 -0.377109 209.381775
v 155.178009 -2.401778 209.381775
v 155.178009 -2.401778 121.954636
v -103.743050 -2.401778 121.954636
v -103.743050 -2.401778 209.381775
vn -0.0000 -1.0000 -0.0000
vn -0.0000 1.0000 -0.0000
vn -0.0000 -0.0000 1.0000
vn 1.0000 -0.0000 -0.0000
vn -1.0000 -0.0000 -0.0000
vn -0.0000 -0.0000 -1.0000
vt 0.000000 0.000000
vt 0.000000 1.000000
vt 1.000000 1.000000
vt 1.000000 0.000000
s 0
f 1/1/1 3/2/1 4/3/1 2/4/1
f 6/1/2 7/4/2 8/3/2 5/2/2
f 1/1/3 2/4/3 7/4/3 6/1/3
f 2/4/4 4/3/4 8/3/4 7/4/4
f 3/2/5 1/1/5 6/1/5 5/2/5
f 4/3/6 3/2/6 5/2/6 8/3/6
